<?xml version="1.0" encoding="UTF-8"?>
<svg id="a" data-name="Layer 1" xmlns="http://www.w3.org/2000/svg" viewBox="0 0 184.26257 184.25197">
  <rect x="32.24595" y="32.11857" width="23.91465" height="23.91465" rx="8.50394" ry="8.50394" transform="translate(88.40655 88.15179) rotate(-180)" style="fill: #231f20;"/>
  <rect x="32.24595" y="64.69157" width="23.91465" height="23.91465" rx="8.50394" ry="8.50394" transform="translate(88.40655 153.29779) rotate(-180)" style="fill: #231f20;"/>
  <rect x="32.46568" y="95.99846" width="23.91465" height="23.91465" rx="8.50394" ry="8.50394" transform="translate(88.846 215.91157) rotate(-180)" style="fill: #231f20;"/>
  <rect x="32.35581" y="127.92146" width="23.91465" height="23.91465" rx="8.50394" ry="8.50394" transform="translate(88.62628 279.75758) rotate(-180)" style="fill: #231f20;"/>
  <rect x="63.40909" y="32.11857" width="23.91465" height="23.91465" rx="8.50394" ry="8.50394" transform="translate(150.73282 88.15179) rotate(-180)" style="fill: #231f20;"/>
  <path d="M68.92785,88.60622l14.93544,1.93676c5.07797,.78297,7.99047-3.59973,6.56428-7.93179l-2.81473-13.41194c-.59488-3.0285-2.75994-4.50768-5.80787-4.50768h-12.87712c-3.04793,0-5.51877,2.47084-5.51877,5.51877v12.87712c0,3.04793,2.64371,5.09401,5.51877,5.51877Z" style="fill: #231f20;"/>
  <rect x="128.10197" y="32.11857" width="23.91465" height="23.91465" rx="8.50394" ry="8.50394" transform="translate(280.11859 88.15179) rotate(-180)" style="fill: #231f20;"/>
  <rect x="95.94766" y="32.27641" width="23.91465" height="23.91465" rx="8.50394" ry="8.50394" transform="translate(215.80997 88.46747) rotate(-180)" style="fill: #231f20;"/>
  <circle cx="107.90499" cy="107.95579" r="11.95732" style="fill: #231f20;"/>
  <path d="M101.30888,89.21663c4.29227,2.68754,9.11951,2.75965,13.41193,.07211,0,0,5.14149-2.90014,5.14149-5.94807v-12.87712c0-3.04793-2.47084-5.51877-5.51877-5.51877h-12.87712c-3.04793,0-5.51877,2.47084-5.51877,5.51877v12.87712c0,3.04793,5.36122,5.87597,5.36122,5.87597Z" style="fill: #231f20;"/>
  <path d="M114.50109,127.41146c-4.29227-2.68754-9.11951-2.75965-13.41193-.07211,0,0-5.14149,2.90014-5.14149,5.94807v12.87712c0,3.04793,2.47083,5.51877,5.51876,5.51877h12.87712c3.04793,0,5.51877-2.47083,5.51877-5.51876v-12.87712c0-3.04793-5.36121-5.87597-5.36121-5.87597Z" style="fill: #231f20;"/>
  <path d="M127.74477,101.35968c-2.68754,4.29227-2.75965,9.11951-.07211,13.41193,0,0,2.90014,5.14149,5.94807,5.14149h12.87712c3.04793,0,5.51877-2.47083,5.51877-5.51876v-12.87712c0-3.04793-2.47083-5.51877-5.51876-5.51877h-12.87712c-3.04793,0-5.87597,5.36122-5.87597,5.36122Z" style="fill: #231f20;"/>
  <path d="M87.4904,114.55189c2.68754-4.29227,2.75965-9.11951,.0721-13.41193,0,0-2.90015-5.14149-5.94808-5.14149h-12.87712c-3.04793,0-5.51876,2.47084-5.51876,5.51877v12.87712c0,3.04793,2.47084,5.51876,5.51877,5.51876h12.87712c3.04793,0,5.87597-5.36123,5.87597-5.36123Z" style="fill: #231f20;"/>
  <path d="M87.32374,146.2756l1.93676-14.93544c.78297-5.07797-3.59973-7.99047-7.93179-6.56428l-13.41194,2.81473c-3.0285,.59488-4.50768,2.75994-4.50768,5.80787v12.87712c0,3.04793,2.47083,5.51877,5.51876,5.51877h12.87712c3.04793,0,5.09401-2.64371,5.51877-5.51876Z" style="fill: #231f20;"/>
  <path d="M127.91142,68.47747l-1.93676,14.93544c-.78297,5.07797,3.59973,7.99047,7.93179,6.56428l13.41194-2.81473c3.0285-.59488,4.50768-2.75994,4.50768-5.80787v-12.87712c0-3.04793-2.47083-5.51877-5.51876-5.51877h-12.87712c-3.04793,0-5.09401,2.64371-5.51877,5.51876Z" style="fill: #231f20;"/>
  <path d="M127.91142,146.2756l-1.93676-14.93544c-.78297-5.07797,3.59973-7.99047,7.93179-6.56428l13.41194,2.81473c3.0285,.59488,4.50768,2.75994,4.50768,5.80787v12.87712c0,3.04793-2.47083,5.51877-5.51876,5.51877h-12.87712c-3.04793,0-5.09401-2.64371-5.51877-5.51876Z" style="fill: #231f20;"/>
</svg>